<svg xmlns="http://www.w3.org/2000/svg" width="219" height="90" viewBox="0 0 219 90" version="1.1"><path d="M 169 3.274 C 164.353 5.580, 161.488 7.855, 158.950 11.253 C 155.171 16.312, 154.971 16.797, 149.978 33 C 145.657 47.025, 139.952 64.196, 139.090 65.774 C 138.707 66.474, 136.900 60.849, 135.073 53.274 C 128.135 24.502, 124.290 14.117, 118.185 7.661 C 112.904 2.076, 112.419 2, 82.159 2 C 57.691 2, 53.737 2.217, 50.346 3.750 C 44.671 6.315, 40.105 9.733, 34.731 15.437 C 29.613 20.871, 20 34.178, 20 35.830 C 20 36.382, 19.654 36.983, 19.232 37.167 C 18.474 37.495, 14.535 45.256, 9.673 56 C 6.242 63.580, 0 82.300, 0 85.007 C 0 87.218, 0.079 87.229, 13.250 86.757 C 28.803 86.199, 35.067 84.453, 41.343 78.929 C 47.399 73.599, 49.286 69.427, 56.877 44.603 C 58.802 38.308, 60.765 34.934, 66.483 28.085 C 72.137 21.313, 74.296 18.963, 74.592 19.258 C 74.771 19.437, 76.520 26.090, 78.479 34.042 C 84.704 59.310, 88.596 70.012, 94.148 77.131 C 99.286 83.719, 100.729 84, 129.433 84 C 148.753 84, 155.857 83.666, 158.282 82.644 C 162.633 80.812, 171.313 72.840, 176.341 66.058 C 182.941 57.157, 193 41.632, 193 40.347 C 193 39.698, 193.375 39.017, 193.832 38.833 C 194.290 38.650, 196.024 36.025, 197.685 33 C 201.309 26.401, 203.679 22.256, 207.860 15.206 C 209.587 12.294, 211 9.586, 211 9.188 C 211 8.790, 212.125 6.809, 213.500 4.785 C 214.875 2.762, 216 0.857, 216 0.553 C 216 0.249, 206.887 0.011, 195.750 0.024 L 175.500 0.047 169 3.274" stroke="none" fill="#460b5e" fill-rule="evenodd"/><path d="M 174.782 78.250 C 175.346 78.938, 176.015 80.625, 176.268 82 C 176.719 84.455, 176.730 84.450, 176.864 81.750 C 177.034 78.315, 179 78.085, 179 81.500 C 179 84.353, 180.623 84.880, 181.311 82.250 C 181.695 80.778, 181.786 80.758, 181.884 82.125 C 181.958 83.161, 182.907 83.750, 184.500 83.750 C 186.673 83.750, 187 83.308, 187 80.375 C 187 76.494, 185.762 75.978, 184.301 79.250 L 183.295 81.500 182.580 79.250 C 181.994 77.404, 181.137 77, 177.810 77 C 174.685 77, 173.991 77.287, 174.782 78.250" stroke="none"  fill-rule="evenodd"/><path d="" fill-rule="evenodd"/></svg>


