<svg id="svg" version="1.1" xmlns="http://www.w3.org/2000/svg" xmlns:xlink="http://www.w3.org/1999/xlink" width="400" height="731.6666666666666" viewBox="0, 0, 400,731.6666666666666"><g id="svgg"><path id="path0" d="M250.810 6.333 C 260.301 47.709,247.327 73.250,196.465 113.321 C 163.618 139.199,153.325 148.804,144.512 161.804 C 126.725 188.038,138.186 216.505,184.167 260.297 C 194.315 269.962,202.066 277.045,202.271 276.840 C 203.098 276.013,195.236 263.168,184.294 247.467 C 178.382 238.984,174.597 233.155,171.717 228.102 C 153.052 195.345,161.984 168.713,202.583 136.065 C 232.160 112.282,250.157 90.751,258.779 68.833 C 266.883 48.233,265.514 26.831,255.081 11.000 C 252.945 7.760,250.533 5.123,250.810 6.333 M307.667 107.866 C 271.576 118.518,240.406 134.642,222.717 151.809 C 195.429 178.289,195.592 207.605,223.211 240.874 C 237.565 258.165,236.673 275.019,220.537 291.410 C 217.494 294.500,217.429 294.701,219.917 293.313 C 237.715 283.386,252.297 268.159,256.608 255.000 C 260.629 242.725,258.339 233.879,247.037 218.043 C 234.000 199.775,230.663 192.675,230.669 183.228 C 230.682 163.654,252.475 142.739,306.083 110.852 C 314.293 105.969,314.330 105.900,307.667 107.866 M338.333 272.861 C 327.717 274.089,321.691 276.178,317.833 279.967 C 315.041 282.710,315.014 282.697,320.275 281.197 C 332.397 277.741,340.746 278.656,349.597 284.411 C 363.687 293.573,366.668 310.291,357.086 326.401 C 349.182 339.688,329.828 355.673,308.833 366.253 C 307.177 367.087,304.667 369.420,304.667 370.124 C 304.667 370.988,325.886 363.915,334.931 360.035 C 369.197 345.337,387.268 323.149,382.743 301.330 C 379.027 283.410,358.866 270.486,338.333 272.861 M136.167 277.562 C 115.446 278.626,89.991 285.315,69.728 295.021 C 45.136 306.800,63.830 316.115,119.833 319.986 C 135.809 321.090,176.068 321.296,192.667 320.358 C 234.585 317.990,278.902 311.464,286.649 306.517 C 290.362 304.146,295.248 301.489,301.433 298.477 C 304.696 296.888,307.321 295.543,307.266 295.488 C 307.211 295.433,306.416 295.532,305.500 295.707 C 228.795 310.365,101.858 313.147,94.993 300.321 C 92.278 295.247,114.804 285.015,143.083 278.475 C 144.504 278.147,145.667 277.756,145.667 277.606 C 145.667 277.351,140.718 277.328,136.167 277.562 M120.000 335.193 C 79.074 350.447,97.281 368.053,159.167 373.068 C 167.525 373.745,198.457 373.640,208.167 372.901 C 235.617 370.812,260.826 366.548,284.417 360.003 C 288.454 358.883,288.978 358.567,287.437 358.181 C 283.561 357.208,275.146 352.203,269.544 347.539 C 267.735 346.032,268.892 345.990,257.833 347.970 C 214.454 355.738,184.099 357.037,141.000 352.969 C 118.709 350.864,113.049 345.718,122.481 336.132 C 123.871 334.719,124.969 333.525,124.921 333.478 C 124.873 333.430,122.658 334.202,120.000 335.193 M131.333 389.192 C 80.364 406.426,142.422 434.713,215.333 427.480 C 237.386 425.292,256.942 420.550,277.250 412.465 C 280.247 411.272,280.295 411.420,276.412 409.877 C 272.057 408.147,259.967 402.256,255.833 399.849 L 252.500 397.908 249.333 398.459 C 224.870 402.716,215.532 403.925,201.167 404.698 C 181.503 405.756,146.165 402.899,137.208 399.528 C 130.492 397.000,129.576 393.279,134.700 389.342 C 135.506 388.722,136.309 388.091,136.483 387.941 C 137.150 387.364,135.692 387.718,131.333 389.192 M79.123 423.663 C 50.989 426.636,19.333 441.790,19.333 452.285 C 19.333 459.171,27.597 462.790,51.778 466.494 C 147.983 481.233,253.766 478.873,321.623 460.473 C 355.444 451.303,369.880 439.269,357.545 430.530 C 353.586 427.725,351.240 426.879,353.009 428.895 C 358.938 435.647,353.460 442.464,338.076 447.476 C 296.637 460.978,176.878 466.988,105.385 459.154 C 74.022 455.717,50.667 449.242,50.667 443.982 C 50.667 437.500,74.679 428.124,95.639 426.422 L 98.777 426.167 97.302 425.433 C 93.819 423.702,85.981 422.939,79.123 423.663 M382.839 453.538 C 381.000 456.345,375.175 460.606,368.833 463.783 C 324.816 485.838,216.443 497.111,123.333 489.322 C 110.561 488.253,88.117 485.564,85.583 484.798 C 84.053 484.336,85.267 485.435,87.417 486.459 C 117.765 500.912,232.836 504.354,304.833 492.962 C 353.318 485.291,379.928 472.442,383.350 455.050 C 383.816 452.681,383.675 452.263,382.839 453.538 M32.973 598.583 C 32.958 635.387,32.895 665.875,32.834 666.333 C 32.773 666.792,32.636 669.717,32.530 672.833 C 31.892 691.643,26.210 701.665,11.083 710.667 C 8.240 712.359,8.282 712.207,10.083 714.256 C 10.862 715.142,13.425 718.140,15.778 720.918 L 20.057 725.968 21.723 725.311 C 40.363 717.964,52.796 704.092,55.985 687.085 C 57.463 679.201,57.441 680.341,57.567 604.417 L 57.687 531.667 45.343 531.667 L 33.000 531.667 32.973 598.583 M114.500 570.024 C 103.839 571.012,87.552 575.210,81.143 578.622 L 80.120 579.167 81.838 586.333 C 82.831 590.475,83.708 593.469,83.915 593.427 C 84.112 593.386,86.678 592.610,89.617 591.702 C 113.842 584.218,132.247 585.828,137.579 595.899 C 139.539 599.601,139.750 600.802,139.916 609.197 L 140.069 616.893 131.604 617.122 C 91.839 618.196,73.349 631.446,74.428 658.093 C 75.218 677.578,88.100 688.088,110.155 687.241 C 121.465 686.806,130.832 683.110,140.583 675.235 C 142.096 674.013,143.335 673.123,143.338 673.257 C 143.340 673.391,143.712 675.900,144.164 678.833 C 144.616 681.767,144.989 684.354,144.993 684.583 C 144.998 684.907,147.095 685.000,154.347 685.000 L 163.695 685.000 163.580 641.583 C 163.451 592.987,163.604 596.106,161.029 589.452 C 155.350 574.774,138.619 567.789,114.500 570.024 M325.667 570.033 C 320.788 570.456,314.123 571.592,309.242 572.832 C 302.436 574.561,291.762 578.363,291.454 579.167 C 291.328 579.494,294.511 593.288,294.772 593.549 C 294.824 593.602,296.660 593.044,298.850 592.310 C 320.047 585.206,338.909 585.337,346.212 592.640 C 349.963 596.391,350.983 599.893,351.243 609.917 L 351.427 617.000 347.130 617.003 C 305.993 617.032,285.354 630.042,285.335 655.957 C 285.321 676.759,298.481 688.143,321.500 687.241 C 332.447 686.812,342.097 682.997,351.586 675.347 C 354.567 672.943,354.365 672.737,355.323 679.167 L 356.167 684.833 365.427 684.922 L 374.688 685.011 374.578 641.255 C 374.457 593.163,374.585 596.233,372.445 590.207 C 367.041 574.997,350.531 567.877,325.667 570.033 M177.000 572.047 C 177.000 572.405,187.087 605.356,204.487 661.833 L 211.573 684.833 226.239 684.920 L 240.906 685.007 243.830 678.420 C 255.149 652.923,264.328 624.782,271.151 594.667 C 272.721 587.733,275.667 573.078,275.667 572.197 C 275.667 571.722,274.385 571.667,263.340 571.667 L 251.013 571.667 250.855 572.417 C 250.768 572.829,250.308 575.792,249.831 579.000 C 247.336 595.807,243.115 614.891,237.888 633.000 C 235.324 641.881,229.042 661.000,228.687 661.000 C 228.551 661.000,228.251 660.137,228.020 659.083 C 224.651 643.687,217.557 619.457,203.498 575.333 L 202.383 571.833 189.691 571.746 C 180.214 571.681,177.000 571.757,177.000 572.047 M140.000 645.616 L 140.000 658.898 136.650 661.399 C 116.599 676.368,96.427 670.920,97.821 650.912 C 98.525 640.812,104.659 635.258,117.405 633.181 C 121.871 632.453,122.002 632.445,131.417 632.387 L 140.000 632.333 140.000 645.616 M351.333 645.486 L 351.333 658.638 348.988 660.510 C 329.332 676.193,309.000 671.963,309.000 652.191 C 309.000 638.051,318.469 632.462,342.583 632.368 L 351.333 632.333 351.333 645.486 "      ="none"         ="evenodd"></path><path id="path1" d="M376.667 572.833 C 376.667 573.583,376.800 573.667,378.000 573.667 L 379.333 573.667 379.333 577.500 L 379.333 581.333 380.333 581.333 L 381.333 581.333 381.333 577.500 L 381.333 573.667 382.667 573.667 C 383.867 573.667,384.000 573.583,384.000 572.833 L 384.000 572.000 380.333 572.000 L 376.667 572.000 376.667 572.833 M385.333 576.648 L 385.333 581.333 386.321 581.333 L 387.309 581.333 387.405 578.083 L 387.500 574.833 388.662 578.098 C 390.226 582.489,390.901 582.530,392.527 578.333 L 393.624 575.500 393.645 578.417 L 393.667 581.333 394.833 581.333 L 396.000 581.333 396.000 576.667 L 396.000 572.000 394.412 572.000 L 392.823 572.000 392.250 573.614 C 391.935 574.502,391.434 575.808,391.138 576.516 L 390.600 577.804 389.515 574.985 L 388.431 572.167 386.882 572.065 L 385.333 571.963 385.333 576.648 "          ="evenodd"></path><path id="path2" d=" ""evenodd"></path><path id="path3" d="" "evenodd"></path><path id="path4" "evenodd"></path></g></svg>